<svg width="45" height="45" viewBox="0 0 45 45" fill="none" xmlns="http://www.w3.org/2000/svg">
<path d="M22.5 11.9531C22.5 17.778 17.8744 22.5 12.1684 22.5H1.83673V11.9531C1.83673 6.12824 6.46236 1.40625 12.1684 1.40625C17.8744 1.40625 22.5 6.12824 22.5 11.9531Z" fill="#17CF97"/>
<path d="M22.5 33.0469C22.5 27.222 27.1256 22.5 32.8316 22.5H43.1633V33.0469C43.1633 38.8717 38.5376 43.5938 32.8316 43.5938C27.1256 43.5938 22.5 38.8717 22.5 33.0469Z" fill="#17CF97"/>
<path d="M1.83673 33.0469C1.83673 38.8717 6.46236 43.5938 12.1684 43.5938H22.5V33.0469C22.5 27.222 17.8744 22.5 12.1684 22.5C6.46236 22.5 1.83673 27.222 1.83673 33.0469Z" fill="#17CF97"/>
<path d="M43.1633 11.9531C43.1633 6.12824 38.5376 1.40625 32.8316 1.40625H22.5V11.9531C22.5 17.778 27.1256 22.5 32.8316 22.5C38.5376 22.5 43.1633 17.778 43.1633 11.9531Z" fill="#17CF97"/>
</svg>
